# This file uses centimeters as units for non-parametric coordinates.

mtllib Fence.mtl
g default
v 0.124574 2.578805 0.086934
v -0.066510 2.569424 0.092117
v 0.120021 2.577259 -0.083708
v -0.071062 2.567878 -0.078525
v 0.066510 3.662622 -0.092118
v -0.124574 3.653241 -0.086935
v 0.071062 3.664169 0.078524
v -0.120021 3.654788 0.083707
v 2.640644 3.764177 0.029701
v 2.677186 3.022992 0.035444
v 2.671533 3.021071 -0.176438
v 2.634991 3.762257 -0.182182
v 3.916117 3.983911 -0.066292
v 3.968160 2.928321 -0.058113
v 3.965705 2.927487 -0.150144
v 3.913661 3.983077 -0.158323
v 8.078702 3.903595 -0.176616
v 8.102743 3.415964 -0.172838
v 8.100288 3.415130 -0.264869
v 8.076247 3.902761 -0.268648
v 10.236925 4.231899 -0.237171
v 10.282839 3.300638 -0.229955
v 10.280384 3.299804 -0.321986
v 10.234470 4.231065 -0.329202
v -1.150855 3.434344 0.190100
v -1.114109 2.689025 0.195875
v -1.159507 3.431404 -0.134207
v -1.122761 2.686086 -0.128431
v -4.961314 3.663153 0.232305
v -4.914624 2.716144 0.239643
v -4.966907 3.661253 0.022666
v -4.920217 2.714244 0.030003
v -7.522587 3.721296 0.300110
v -7.457809 2.407411 0.310290
v -7.528180 3.719396 0.090470
v -7.463402 2.405511 0.100651
v -10.546931 3.143217 0.499541
v -10.524499 2.688227 0.503067
v -10.558576 3.139260 0.063070
v -10.536143 2.684271 0.066595
v -0.110585 0.550117 -0.082117
v 0.080707 0.544549 -0.080018
v -0.112418 0.551515 0.088577
v 0.078874 0.545947 0.090676
v -0.080707 1.637733 0.080018
v 0.110585 1.632165 0.082118
v -0.078874 1.636335 -0.090675
v 0.112418 1.630767 -0.088576
v -2.649948 1.684732 -0.139309
v -2.671604 0.942963 -0.133465
v -2.673880 0.944700 0.078483
v -2.652224 1.686468 0.072638
v -3.932219 1.879988 -0.094722
v -3.963060 0.823567 -0.086399
v -3.964048 0.824321 0.005661
v -3.933207 1.880742 -0.002663
v -8.093612 1.716671 -0.138067
v -8.107859 1.228656 -0.134222
v -8.108847 1.229411 -0.042162
v -8.094600 1.717426 -0.046007
v -10.258648 2.001868 -0.163650
v -10.285857 1.069874 -0.156307
v -10.286845 1.070629 -0.064247
v -10.259636 2.002623 -0.071591
v 1.150674 1.429639 -0.152650
v 1.128898 0.683734 -0.146773
v 1.147190 1.432297 0.171756
v 1.125414 0.686392 0.177633
v 4.954765 1.735356 -0.056947
v 4.927096 0.787601 -0.049480
v 4.952514 1.737074 0.152757
v 4.924845 0.789319 0.160224
v 7.515129 1.844568 -0.030350
v 7.476741 0.529649 -0.019990
v 7.512877 1.846287 0.179354
v 7.474490 0.531367 0.189714
v 10.555658 1.325021 -0.106918
v 10.542365 0.869673 -0.103330
v 10.550970 1.328598 0.329687
v 10.537677 0.873250 0.333275
v -10.767128 0.015360 0.665056
v -10.061948 0.015360 -0.043972
v -10.624068 1.551314 0.834111
v -9.929309 1.551314 -0.174327
v -11.394618 1.551314 0.303245
v -10.699859 1.551314 -0.705194
v -11.261979 0.015360 0.172889
v -10.556799 0.015360 -0.536138
v -10.614248 3.009671 0.889060
v -9.985278 3.137227 0.173256
v -10.709679 3.119551 -0.760143
v -11.338649 2.991995 -0.044339
v -10.865906 4.177917 0.712637
v -10.332927 4.196590 0.178625
v -10.720181 4.151892 -0.421933
v -11.253159 4.133219 0.112077
v -10.787740 4.938137 0.430106
v -10.418552 4.951077 0.060376
v -10.709904 4.917855 -0.378568
v -11.079090 4.904915 -0.008839
v 9.551298 0.015360 -0.187124
v 10.062122 0.015360 0.672561
v 9.351914 1.551314 -0.090730
v 10.155293 1.551314 0.833511
v 10.058127 1.551314 -0.704593
v 10.861506 1.551314 0.219648
v 10.151299 0.015360 -0.543643
v 10.662123 0.015360 0.316042
v 9.296252 3.009671 -0.094919
v 9.832640 3.137227 0.692651
v 10.917169 3.119551 0.223837
v 10.380781 2.991995 -0.563733
v 9.529846 4.177917 -0.294646
v 9.914115 4.196590 0.354641
v 10.592257 4.151892 0.129345
v 10.207991 4.133219 -0.519940
v 9.783968 4.938137 -0.148508
v 10.049978 4.951077 0.301201
v 10.547699 4.917855 0.128487
v 10.281690 4.904915 -0.321222
vt 0.375000 0.000000
vt 0.625000 0.000000
vt 0.375000 0.250000
vt 0.625000 0.250000
vt 0.375000 0.500000
vt 0.625000 0.500000
vt 0.375000 0.750000
vt 0.625000 0.750000
vt 0.375000 1.000000
vt 0.625000 1.000000
vt 0.875000 0.000000
vt 0.875000 0.250000
vt 0.125000 0.000000
vt 0.125000 0.250000
vt 0.125000 0.000000
vt 0.375000 0.000000
vt 0.375000 0.250000
vt 0.125000 0.250000
vt 0.125000 0.000000
vt 0.375000 0.000000
vt 0.375000 0.250000
vt 0.125000 0.250000
vt 0.125000 0.000000
vt 0.375000 0.000000
vt 0.375000 0.250000
vt 0.125000 0.250000
vt 0.125000 0.000000
vt 0.375000 0.000000
vt 0.375000 0.250000
vt 0.125000 0.250000
vt 0.625000 0.000000
vt 0.875000 0.000000
vt 0.875000 0.250000
vt 0.625000 0.250000
vt 0.625000 0.000000
vt 0.875000 0.000000
vt 0.875000 0.250000
vt 0.625000 0.250000
vt 0.625000 0.000000
vt 0.875000 0.000000
vt 0.875000 0.250000
vt 0.625000 0.250000
vt 0.625000 0.000000
vt 0.875000 0.000000
vt 0.875000 0.250000
vt 0.625000 0.250000
vt 0.375000 0.000000
vt 0.625000 0.000000
vt 0.625000 0.250000
vt 0.375000 0.250000
vt 0.625000 0.500000
vt 0.375000 0.500000
vt 0.625000 0.750000
vt 0.375000 0.750000
vt 0.625000 1.000000
vt 0.375000 1.000000
vt 0.625000 0.000000
vt 0.875000 0.000000
vt 0.875000 0.250000
vt 0.625000 0.250000
vt 0.125000 0.000000
vt 0.375000 0.000000
vt 0.375000 0.250000
vt 0.125000 0.250000
vt 0.125000 0.000000
vt 0.375000 0.000000
vt 0.125000 0.000000
vt 0.375000 0.250000
vt 0.125000 0.250000
vt 0.125000 0.250000
vt 0.375000 0.000000
vt 0.125000 0.000000
vt 0.375000 0.250000
vt 0.125000 0.250000
vt 0.375000 0.000000
vt 0.125000 0.000000
vt 0.375000 0.250000
vt 0.125000 0.250000
vt 0.875000 0.000000
vt 0.875000 0.000000
vt 0.625000 0.000000
vt 0.875000 0.250000
vt 0.875000 0.250000
vt 0.625000 0.250000
vt 0.875000 0.000000
vt 0.625000 0.000000
vt 0.875000 0.250000
vt 0.625000 0.250000
vt 0.875000 0.000000
vt 0.625000 0.000000
vt 0.875000 0.250000
vt 0.625000 0.250000
vt 0.375000 0.000000
vt 0.625000 0.000000
vt 0.625000 0.250000
vt 0.375000 0.250000
vt 0.375000 0.250000
vt 0.625000 0.250000
vt 0.625000 0.500000
vt 0.375000 0.500000
vt 0.375000 0.500000
vt 0.625000 0.500000
vt 0.625000 0.750000
vt 0.375000 0.750000
vt 0.625000 1.000000
vt 0.375000 1.000000
vt 0.875000 0.000000
vt 0.875000 0.250000
vt 0.125000 0.000000
vt 0.125000 0.250000
vt 0.625000 0.250000
vt 0.375000 0.250000
vt 0.625000 0.500000
vt 0.375000 0.500000
vt 0.625000 0.250000
vt 0.375000 0.250000
vt 0.625000 0.500000
vt 0.375000 0.500000
vt 0.375000 0.000000
vt 0.625000 0.000000
vt 0.625000 0.250000
vt 0.375000 0.250000
vt 0.375000 0.250000
vt 0.625000 0.250000
vt 0.625000 0.500000
vt 0.375000 0.500000
vt 0.375000 0.500000
vt 0.625000 0.500000
vt 0.625000 0.750000
vt 0.375000 0.750000
vt 0.625000 1.000000
vt 0.375000 1.000000
vt 0.875000 0.000000
vt 0.875000 0.250000
vt 0.125000 0.000000
vt 0.125000 0.250000
vt 0.625000 0.250000
vt 0.375000 0.250000
vt 0.625000 0.500000
vt 0.375000 0.500000
vt 0.625000 0.250000
vt 0.375000 0.250000
vt 0.625000 0.500000
vt 0.375000 0.500000
vn 0.164069 -0.986438 0.004565
vn -0.095146 -0.995396 0.011561
vn -0.095146 -0.995396 0.011561
vn 0.164069 -0.986438 0.004565
vn -0.033975 -0.009419 -0.999378
vn 0.032498 -0.006142 -0.999453
vn 0.032498 -0.006142 -0.999453
vn -0.034021 -0.009421 -0.999377
vn -0.039673 0.999181 -0.007996
vn -0.192601 0.981270 -0.003757
vn -0.192601 0.981270 -0.003757
vn -0.039673 0.999181 -0.007996
vn 0.019314 0.008699 0.999776
vn 0.085740 0.011947 0.996246
vn 0.085740 0.011947 0.996246
vn 0.019360 0.008701 0.999775
vn -0.998431 -0.049015 0.027081
vn -0.998431 -0.049015 0.027081
vn -0.998431 -0.049015 0.027081
vn -0.998431 -0.049015 0.027081
vn 0.998431 0.049016 -0.027075
vn 0.998431 0.049016 -0.027075
vn 0.998431 0.049016 -0.027075
vn 0.998431 0.049016 -0.027075
vn 0.018659 0.008667 0.999788
vn 0.018659 0.008667 0.999788
vn 0.171520 -0.985171 0.004355
vn 0.171520 -0.985171 0.004355
vn -0.034676 -0.009453 -0.999354
vn -0.034676 -0.009453 -0.999354
vn -0.039041 0.999205 -0.008013
vn -0.039041 0.999206 -0.008013
vn 0.073102 0.011331 0.997260
vn 0.073102 0.011331 0.997260
vn 0.038668 0.009649 0.999206
vn 0.038668 0.009649 0.999206
vn -0.072341 -0.997320 0.010969
vn -0.072341 -0.997320 0.010969
vn 0.051886 -0.998624 0.007670
vn 0.051886 -0.998624 0.007670
vn 0.019824 -0.006769 -0.999781
vn 0.019824 -0.006769 -0.999781
vn -0.014664 -0.008470 -0.999857
vn -0.014664 -0.008470 -0.999857
vn -0.170095 0.985418 -0.004391
vn -0.170095 0.985418 -0.004391
vn -0.046596 0.998883 -0.007814
vn -0.046596 0.998883 -0.007814
vn 0.026668 0.009060 0.999603
vn 0.026668 0.009060 0.999603
vn 0.059059 -0.998227 0.007475
vn 0.059060 -0.998227 0.007475
vn -0.026668 -0.009060 -0.999603
vn -0.026668 -0.009060 -0.999603
vn -0.039418 0.999191 -0.008011
vn -0.039418 0.999191 -0.008011
vn 0.026668 0.009060 0.999603
vn 0.026668 0.009060 0.999603
vn -0.052550 -0.998564 0.010451
vn -0.052550 -0.998564 0.010451
vn -0.026668 -0.009060 -0.999603
vn -0.026668 -0.009060 -0.999603
vn -0.150521 0.988594 -0.004952
vn -0.150521 0.988594 -0.004952
vn 0.032382 0.009341 0.999432
vn 0.034078 0.009424 0.999375
vn 0.006502 0.999936 -0.009236
vn 0.006502 0.999936 -0.009236
vn -0.019257 -0.008696 -0.999777
vn -0.020953 -0.008780 -0.999742
vn -0.027977 -0.999561 0.009806
vn -0.027977 -0.999561 0.009806
vn 0.019164 0.008692 0.999779
vn 0.018760 0.008672 0.999786
vn 0.047002 0.998842 -0.010307
vn 0.047002 0.998842 -0.010307
vn -0.034575 -0.009448 -0.999358
vn -0.034171 -0.009428 -0.999372
vn 0.036973 -0.999284 0.008070
vn 0.036973 -0.999284 0.008070
vn 0.044154 0.009917 0.998976
vn 0.044154 0.009917 0.998976
vn -0.115951 0.993237 -0.005910
vn -0.115951 0.993237 -0.005910
vn -0.009174 -0.008200 -0.999924
vn -0.009174 -0.008200 -0.999924
vn -0.017689 -0.999798 0.009533
vn -0.017689 -0.999798 0.009533
vn 0.063726 0.010874 0.997908
vn 0.063726 0.010874 0.997908
vn -0.187989 0.982163 -0.003887
vn -0.187989 0.982163 -0.003887
vn 0.010426 -0.007234 -0.999919
vn 0.010426 -0.007234 -0.999920
vn -0.090469 -0.995834 0.011439
vn -0.090469 -0.995834 0.011439
vn -0.144267 -0.989517 0.006558
vn 0.115154 -0.993304 0.009374
vn 0.115154 -0.993304 0.009374
vn -0.144267 -0.989517 0.006558
vn -0.003421 0.007979 0.999962
vn -0.069901 0.009900 0.997505
vn -0.069901 0.009900 0.997505
vn -0.003374 0.007977 0.999963
vn 0.019604 0.999776 -0.007980
vn 0.172906 0.984919 -0.006212
vn 0.172906 0.984919 -0.006212
vn 0.019604 0.999776 -0.007980
vn 0.018098 -0.008406 -0.999801
vn -0.048466 -0.006455 -0.998804
vn -0.048466 -0.006455 -0.998804
vn 0.018051 -0.008404 -0.999802
vn 0.999517 -0.029092 0.010971
vn 0.999517 -0.029092 0.010971
vn 0.999517 -0.029092 0.010971
vn 0.999517 -0.029092 0.010971
vn -0.999517 0.029095 -0.010965
vn -0.999517 0.029095 -0.010965
vn -0.999517 0.029095 -0.010965
vn -0.999517 0.029095 -0.010965
vn 0.018753 -0.008425 -0.999789
vn 0.018753 -0.008425 -0.999789
vn -0.151745 -0.988399 0.006468
vn -0.151745 -0.988399 0.006468
vn -0.002719 0.007958 0.999965
vn -0.002719 0.007958 0.999965
vn 0.018971 0.999788 -0.007987
vn 0.018971 0.999788 -0.007987
vn -0.035789 -0.006829 -0.999336
vn -0.035789 -0.006829 -0.999336
vn -0.001279 -0.007841 -0.999969
vn -0.001279 -0.007841 -0.999969
vn 0.092385 -0.995681 0.009150
vn 0.092385 -0.995681 0.009150
vn -0.031828 -0.999463 0.007847
vn -0.031828 -0.999463 0.007847
vn -0.057238 0.009537 0.998315
vn -0.057238 0.009537 0.998315
vn -0.022751 0.008541 0.999705
vn -0.022751 0.008541 0.999705
vn 0.150315 0.988617 -0.006485
vn 0.150315 0.988617 -0.006485
vn 0.026533 0.999617 -0.007903
vn 0.026533 0.999617 -0.007903
vn 0.010736 -0.008192 -0.999909
vn 0.010736 -0.008192 -0.999909
vn -0.039011 -0.999209 0.007768
vn -0.039010 -0.999209 0.007768
vn -0.010736 0.008192 0.999909
vn -0.010736 0.008192 0.999909
vn 0.019348 0.999781 -0.007982
vn 0.019348 0.999781 -0.007982
vn 0.010736 -0.008192 -0.999909
vn 0.010736 -0.008192 -0.999909
vn 0.072617 -0.997320 0.008953
vn 0.072617 -0.997320 0.008953
vn -0.010736 0.008192 0.999909
vn -0.010736 0.008192 0.999909
vn 0.130675 0.991403 -0.006721
vn 0.130675 0.991402 -0.006721
vn 0.005015 -0.008025 -0.999955
vn 0.003317 -0.007976 -0.999963
vn -0.026592 0.999610 -0.008475
vn -0.026592 0.999610 -0.008475
vn -0.018155 0.008407 0.999800
vn -0.016457 0.008358 0.999830
vn 0.048061 -0.998807 0.008698
vn 0.048061 -0.998807 0.008698
vn 0.018247 -0.008410 -0.999798
vn 0.018652 -0.008422 -0.999791
vn -0.067074 0.997708 -0.008894
vn -0.067074 0.997708 -0.008894
vn -0.002820 0.007961 0.999964
vn -0.003225 0.007973 0.999963
vn -0.016901 -0.999825 0.008009
vn -0.016901 -0.999825 0.008009
vn -0.006774 -0.007681 -0.999948
vn -0.006774 -0.007681 -0.999948
vn 0.096008 0.995355 -0.007124
vn 0.096008 0.995355 -0.007124
vn -0.028244 0.008700 0.999563
vn -0.028244 0.008700 0.999563
vn 0.037777 -0.999249 0.008592
vn 0.037777 -0.999249 0.008592
vn -0.026387 -0.007106 -0.999627
vn -0.026387 -0.007106 -0.999627
vn 0.168276 0.985720 -0.006269
vn 0.168276 0.985720 -0.006269
vn -0.047845 0.009266 0.998812
vn -0.047845 0.009266 0.998812
vn 0.110485 -0.993834 0.009328
vn 0.110485 -0.993834 0.009328
vn 0.772801 -0.077293 0.629925
vn 0.772801 -0.077293 0.629924
vn 0.783004 -0.072782 0.617744
vn 0.783513 -0.072554 0.617125
vn -0.066407 0.997298 -0.031405
vn -0.066407 0.997298 -0.031405
vn -0.066407 0.997298 -0.031405
vn -0.066407 0.997298 -0.031405
vn -0.780393 -0.073679 -0.620933
vn -0.780832 -0.073468 -0.620406
vn -0.772801 -0.077293 -0.629925
vn -0.772801 -0.077293 -0.629925
vn 0.000000 -1.000000 0.000000
vn 0.000000 -1.000000 0.000000
vn 0.000000 -1.000000 0.000000
vn 0.000000 -1.000000 0.000000
vn 0.627002 -0.073464 -0.775546
vn 0.627002 -0.073464 -0.775546
vn 0.671298 0.018351 -0.740961
vn 0.670710 0.017019 -0.741525
vn -0.627002 -0.073464 0.775546
vn -0.627002 -0.073464 0.775546
vn -0.670495 0.019317 0.741663
vn -0.669961 0.018071 0.742176
vn 0.769298 0.040891 0.637580
vn 0.770212 0.037538 0.636683
vn 0.730577 0.132075 -0.669936
vn 0.733984 0.137621 -0.665078
vn -0.776185 0.007448 -0.630462
vn -0.773088 0.022724 -0.633892
vn -0.744443 0.033224 0.666860
vn -0.747544 0.029383 0.663562
vn 0.695588 0.223393 0.682827
vn 0.695732 0.224970 0.682163
vn 0.801621 0.173282 -0.572169
vn 0.803026 0.168467 -0.571636
vn -0.725599 0.137975 -0.674144
vn -0.725315 0.136265 -0.674797
vn -0.818467 0.032775 0.573618
vn -0.818849 0.037072 0.572811
vn 0.691827 0.187877 0.697193
vn 0.691827 0.187877 0.697193
vn 0.836777 0.014509 -0.547351
vn 0.836777 0.014509 -0.547351
vn -0.707725 0.049302 -0.704766
vn -0.707725 0.049302 -0.704766
vn -0.815568 0.269190 0.512236
vn -0.815568 0.269190 0.512236
vn -0.802705 -0.077293 0.591346
vn -0.802705 -0.077293 0.591346
vn -0.793453 -0.072782 0.604264
vn -0.792980 -0.072554 0.604912
vn 0.046970 0.997298 -0.056481
vn 0.046970 0.997298 -0.056481
vn 0.046970 0.997298 -0.056481
vn 0.046970 0.997298 -0.056481
vn 0.795890 -0.073679 -0.600941
vn 0.795490 -0.073468 -0.601497
vn 0.802705 -0.077293 -0.591346
vn 0.802705 -0.077293 -0.591346
vn 0.000000 -1.000000 0.000000
vn 0.000000 -1.000000 0.000000
vn 0.000000 -1.000000 0.000000
vn 0.000000 -1.000000 0.000000
vn 0.594733 -0.073463 0.800560
vn 0.594733 -0.073463 0.800560
vn 0.550197 0.018352 0.834833
vn 0.550889 0.017019 0.834405
vn -0.594733 -0.073463 -0.800560
vn -0.594733 -0.073463 -0.800560
vn -0.551077 0.019317 -0.834231
vn -0.551707 0.018071 -0.833842
vn -0.809245 0.040891 0.586046
vn -0.808604 0.037537 0.587154
vn 0.466636 0.132075 0.874533
vn 0.461082 0.137621 0.876621
vn 0.804069 0.007448 -0.594490
vn 0.806619 0.022724 -0.590635
vn -0.460200 0.033224 -0.887194
vn -0.456233 0.029384 -0.889375
vn -0.834686 0.223393 0.503383
vn -0.834079 0.224970 0.503688
vn 0.354243 0.173283 0.918959
vn 0.353377 0.168467 0.920187
vn 0.833760 0.137974 -0.534610
vn 0.834321 0.136265 -0.534172
vn -0.351447 0.032776 -0.935634
vn -0.350570 0.037073 -0.935802
vn -0.847661 0.187878 0.496159
vn -0.847660 0.187878 0.496159
vn 0.321443 0.014510 0.946818
vn 0.321443 0.014510 0.946818
vn 0.858959 0.049302 -0.509666
vn 0.858959 0.049302 -0.509666
vn -0.292726 0.269189 -0.917523
vn -0.292726 0.269189 -0.917523
s 1
g pCube6
usemtl initialShadingGroup
f 1/1/1 2/2/2 4/4/3 3/3/4
s 2
f 3/3/5 4/4/6 6/6/7 5/5/8
s 3
f 5/5/9 6/6/10 8/8/11 7/7/12
s 4
f 7/7/13 8/8/14 2/10/15 1/9/16
s off
f 38/43/17 37/44/18 39/45/19 40/46/20
f 21/27/21 22/28/22 23/29/23 24/30/24
s 4
f 7/13/13 1/1/16 10/16/25 9/15/26
s 1
f 1/1/1 3/3/4 11/17/27 10/16/28
s 2
f 3/3/5 5/14/8 12/18/29 11/17/30
s 3
f 5/14/9 7/13/12 9/15/31 12/18/32
s 5
f 9/15/33 10/16/34 14/20/35 13/19/36
s 6
f 10/16/37 11/17/38 15/21/39 14/20/40
s 7
f 11/17/41 12/18/42 16/22/43 15/21/44
s 8
f 12/18/45 9/15/46 13/19/47 16/22/48
s 5
f 13/19/36 14/20/35 18/24/49 17/23/50
s 6
f 14/20/40 15/21/39 19/25/51 18/24/52
s 7
f 15/21/44 16/22/43 20/26/53 19/25/54
s 8
f 16/22/48 13/19/47 17/23/55 20/26/56
s 5
f 17/23/50 18/24/49 22/28/57 21/27/58
s 6
f 18/24/52 19/25/51 23/29/59 22/28/60
s 7
f 19/25/54 20/26/53 24/30/61 23/29/62
s 8
f 20/26/56 17/23/55 21/27/63 24/30/64
s 4
f 2/2/15 8/11/14 25/32/65 26/31/66
s 3
f 8/11/11 6/12/10 27/33/67 25/32/68
s 2
f 6/12/7 4/4/6 28/34/69 27/33/70
s 1
f 4/4/3 2/2/2 26/31/71 28/34/72
s 4
f 26/31/66 25/32/65 29/36/73 30/35/74
s 3
f 25/32/68 27/33/67 31/37/75 29/36/76
s 2
f 27/33/70 28/34/69 32/38/77 31/37/78
s 1
f 28/34/72 26/31/71 30/35/79 32/38/80
s 4
f 30/35/74 29/36/73 33/40/81 34/39/82
s 3
f 29/36/76 31/37/75 35/41/83 33/40/84
s 2
f 31/37/78 32/38/77 36/42/85 35/41/86
s 1
f 32/38/80 30/35/79 34/39/87 36/42/88
s 4
f 34/39/82 33/40/81 37/44/89 38/43/90
s 3
f 33/40/84 35/41/83 39/45/91 37/44/92
s 2
f 35/41/86 36/42/85 40/46/93 39/45/94
s 1
f 36/42/88 34/39/87 38/43/95 40/46/96
s 9
f 41/47/97 42/48/98 44/49/99 43/50/100
s 10
f 43/50/101 44/49/102 46/51/103 45/52/104
s 11
f 45/52/105 46/51/106 48/53/107 47/54/108
s 12
f 47/54/109 48/53/110 42/55/111 41/56/112
s off
f 78/57/113 77/58/114 79/59/115 80/60/116
f 61/61/117 62/62/118 63/63/119 64/64/120
s 12
f 47/65/109 41/47/112 50/66/121 49/67/122
s 9
f 41/47/97 43/50/100 51/68/123 50/66/124
s 10
f 43/50/101 45/69/104 52/70/125 51/68/126
s 11
f 45/69/105 47/65/108 49/67/127 52/70/128
s 13
f 49/67/129 50/66/130 54/71/131 53/72/132
s 14
f 50/66/133 51/68/134 55/73/135 54/71/136
s 15
f 51/68/137 52/70/138 56/74/139 55/73/140
s 16
f 52/70/141 49/67/142 53/72/143 56/74/144
s 13
f 53/72/132 54/71/131 58/75/145 57/76/146
s 14
f 54/71/136 55/73/135 59/77/147 58/75/148
s 15
f 55/73/140 56/74/139 60/78/149 59/77/150
s 16
f 56/74/144 53/72/143 57/76/151 60/78/152
s 13
f 57/76/146 58/75/145 62/62/153 61/61/154
s 14
f 58/75/148 59/77/147 63/63/155 62/62/156
s 15
f 59/77/150 60/78/149 64/64/157 63/63/158
s 16
f 60/78/152 57/76/151 61/61/159 64/64/160
s 12
f 42/48/111 48/79/110 65/80/161 66/81/162
s 11
f 48/79/107 46/82/106 67/83/163 65/80/164
s 10
f 46/82/103 44/49/102 68/84/165 67/83/166
s 9
f 44/49/99 42/48/98 66/81/167 68/84/168
s 12
f 66/81/162 65/80/161 69/85/169 70/86/170
s 11
f 65/80/164 67/83/163 71/87/171 69/85/172
s 10
f 67/83/166 68/84/165 72/88/173 71/87/174
s 9
f 68/84/168 66/81/167 70/86/175 72/88/176
s 12
f 70/86/170 69/85/169 73/89/177 74/90/178
s 11
f 69/85/172 71/87/171 75/91/179 73/89/180
s 10
f 71/87/174 72/88/173 76/92/181 75/91/182
s 9
f 72/88/176 70/86/175 74/90/183 76/92/184
s 12
f 74/90/178 73/89/177 77/58/185 78/57/186
s 11
f 73/89/180 75/91/179 79/59/187 77/58/188
s 10
f 75/91/182 76/92/181 80/60/189 79/59/190
s 9
f 76/92/184 74/90/183 78/57/191 80/60/192
s 17
f 81/93/193 82/94/194 84/95/195 83/96/196
s off
f 97/97/197 98/98/198 99/99/199 100/100/200
s 18
f 85/101/201 86/102/202 88/103/203 87/104/204
s off
f 87/104/205 88/103/206 82/105/207 81/106/208
s 19
f 82/94/209 88/107/210 86/108/211 84/95/212
s 20
f 87/109/213 81/93/214 83/96/215 85/110/216
s 17
f 83/96/196 84/95/195 90/111/217 89/112/218
s 19
f 84/95/212 86/102/211 91/113/219 90/111/220
s 18
f 86/102/202 85/101/201 92/114/221 91/113/222
s 20
f 85/101/216 83/96/215 89/112/223 92/114/224
s 17
f 89/112/218 90/111/217 94/115/225 93/116/226
s 19
f 90/111/220 91/113/219 95/117/227 94/115/228
s 18
f 91/113/222 92/114/221 96/118/229 95/117/230
s 20
f 92/114/224 89/112/223 93/116/231 96/118/232
s 17
f 93/116/226 94/115/225 98/98/233 97/97/234
s 19
f 94/115/228 95/117/227 99/99/235 98/98/236
s 18
f 95/117/230 96/118/229 100/100/237 99/99/238
s 20
f 96/118/232 93/116/231 97/97/239 100/100/240
s 21
f 101/119/241 102/120/242 104/121/243 103/122/244
s off
f 117/123/245 118/124/246 119/125/247 120/126/248
s 22
f 105/127/249 106/128/250 108/129/251 107/130/252
s off
f 107/130/253 108/129/254 102/131/255 101/132/256
s 23
f 102/120/257 108/133/258 106/134/259 104/121/260
s 24
f 107/135/261 101/119/262 103/122/263 105/136/264
s 21
f 103/122/244 104/121/243 110/137/265 109/138/266
s 23
f 104/121/260 106/128/259 111/139/267 110/137/268
s 22
f 106/128/250 105/127/249 112/140/269 111/139/270
s 24
f 105/127/264 103/122/263 109/138/271 112/140/272
s 21
f 109/138/266 110/137/265 114/141/273 113/142/274
s 23
f 110/137/268 111/139/267 115/143/275 114/141/276
s 22
f 111/139/270 112/140/269 116/144/277 115/143/278
s 24
f 112/140/272 109/138/271 113/142/279 116/144/280
s 21
f 113/142/274 114/141/273 118/124/281 117/123/282
s 23
f 114/141/276 115/143/275 119/125/283 118/124/284
s 22
f 115/143/278 116/144/277 120/126/285 119/125/286
s 24
f 116/144/280 113/142/279 117/123/287 120/126/288
